<svg width="217" height="62" viewBox="0 0 217 62" fill="none" xmlns="http://www.w3.org/2000/svg">
<path fill-rule="evenodd" clip-rule="evenodd" d="M19.9425 30.6524C20.6325 30.9894 21.2665 31.1914 21.8385 31.3134C22.4095 31.4254 23.0105 31.3694 23.6385 31.1674C24.2655 30.9894 24.8545 30.6064 25.4095 30.0464C26.3185 29.1384 26.8395 28.1294 26.9635 27.0064C27.0835 25.8964 26.7825 24.9664 26.0595 24.2484C25.4095 23.6084 24.6645 23.1724 23.8345 22.9364C22.9925 22.7124 21.8495 22.5784 20.3965 22.5784C18.4455 22.5554 17.1395 22.5224 16.4605 22.4544C15.7815 22.4094 14.9575 22.2864 13.9715 22.0844C12.9895 21.8824 12.3115 21.6914 11.9465 21.5454C11.6095 21.4454 11.3865 21.4004 11.2565 21.4344C11.1285 21.4554 11.0105 21.5234 10.9145 21.6244C10.8085 21.7374 10.7415 21.8484 10.7265 21.9834C10.7075 22.1184 10.7585 22.3314 10.8705 22.6234C11.0025 23.0144 11.1705 23.6764 11.3745 24.6754C11.5875 25.6394 11.7175 26.4814 11.7725 27.1644C11.8235 27.8374 11.8575 29.1494 11.8765 31.1004C11.8915 32.4794 12.0085 33.6124 12.2215 34.4644C12.4375 35.3164 12.8675 36.0464 13.5005 36.6844C14.2765 37.4694 15.2265 37.7954 16.3445 37.6504C17.4555 37.5044 18.4635 37.0004 19.3545 36.1134C19.9045 35.5644 20.2795 34.9694 20.4745 34.3534C20.6775 33.7244 20.7225 33.1304 20.6215 32.5584C20.5145 31.9864 20.2965 31.3364 19.9425 30.6524Z" fill="white"/>
<path fill-rule="evenodd" clip-rule="evenodd" d="M48.3426 21.6353C48.2026 21.6693 47.9626 21.7363 47.6026 21.8603C47.0866 22.0283 46.5196 22.1623 45.9146 22.2423C45.3046 22.3193 44.4116 22.3433 43.2396 22.3083C41.1766 22.2423 39.7306 22.2423 38.8776 22.3193C38.0266 22.3863 37.2176 22.5673 36.4556 22.8593C35.6816 23.1503 35.0436 23.5533 34.5376 24.0583C34.0586 24.5393 33.6926 25.1343 33.4266 25.8303C33.1636 26.5243 33.1356 27.2203 33.3496 27.8823C33.5446 28.5443 33.8516 29.0603 34.2576 29.4743C34.5996 29.8213 35.0206 30.0803 35.5366 30.2813C36.0466 30.4733 36.5266 30.5633 36.9716 30.5633C37.4156 30.5513 38.0196 30.4733 38.7886 30.3493C37.7516 31.2583 36.8216 31.9543 35.9786 32.4793L38.4066 34.9143C38.9336 34.0613 39.6406 33.1413 40.5376 32.0983C40.4096 32.8953 40.3356 33.5123 40.3256 33.9383C40.3256 34.3863 40.4206 34.8583 40.6106 35.3743C40.8036 35.8783 41.0716 36.2933 41.4176 36.6403C41.8266 37.0433 42.3616 37.3363 43.0166 37.5483C43.6836 37.7503 44.3576 37.7173 45.0646 37.4593C45.7626 37.2013 46.3526 36.8313 46.8346 36.3493C47.3306 35.8563 47.7326 35.2173 48.0446 34.4203C48.3636 33.6243 48.5346 32.7273 48.5896 31.7403C48.6396 30.7423 48.6396 29.3853 48.5896 27.6473C48.5616 26.4803 48.5846 25.5833 48.6566 24.9663C48.7356 24.3713 48.8596 23.8003 49.0326 23.2843C49.1566 22.9363 49.2286 22.6903 49.2616 22.5553C49.2956 22.4103 49.5096 22.0283 49.4636 21.8373L49.0606 21.4333C48.8646 21.3773 48.4776 21.6023 48.3426 21.6353Z" fill="white"/>
<path fill-rule="evenodd" clip-rule="evenodd" d="M30.0979 13.6505L35.2349 19.9985L30.0979 26.3455L24.9609 19.9985L30.0979 13.6505Z" fill="white"/>
<path fill-rule="evenodd" clip-rule="evenodd" d="M26.4019 36.7188C26.0779 36.1688 25.8449 35.7098 25.7079 35.3168C25.5549 34.9368 25.4819 34.5098 25.4819 34.0498C25.4819 32.8838 25.9399 31.8958 26.8439 31.1008C27.7489 30.2828 28.8299 29.8788 30.0899 29.8788C31.3599 29.8788 32.4409 30.2828 33.3499 31.1008C34.2559 31.8958 34.7129 32.8838 34.7129 34.0498C34.7129 34.5098 34.6399 34.9368 34.4999 35.3168C34.3559 35.7098 34.1189 36.1688 33.7759 36.7188C34.5339 36.5068 35.1549 36.3938 35.6479 36.3938C36.8479 36.3938 37.9209 36.8088 38.8459 37.6168C39.7639 38.4348 40.2329 39.5218 40.2329 40.8798C40.2329 42.1928 39.7819 43.2908 38.8839 44.1318C37.9869 44.9958 36.9439 45.3998 35.7559 45.3998C35.0599 45.3998 34.3479 45.2078 33.6259 44.8498C32.9009 44.4568 32.1499 43.7398 31.3719 42.6738C31.5499 44.3898 32.8389 51.9378 32.8389 51.9378H27.3499C27.3499 51.9378 28.6399 44.3898 28.8159 42.6738C28.0349 43.7508 27.2769 44.4678 26.5439 44.8498C25.8139 45.2078 25.1069 45.3998 24.4289 45.3998C23.2469 45.3998 22.2039 44.9958 21.3119 44.1318C20.4099 43.2908 19.9609 42.1928 19.9609 40.8798C19.9609 39.5218 20.4249 38.4348 21.3499 37.6168C22.2699 36.8088 23.3429 36.3938 24.5629 36.3938C25.0499 36.3938 25.6629 36.5068 26.4019 36.7188Z" fill="white"/>
<path fill-rule="evenodd" clip-rule="evenodd" d="M30.152 1.59534C13.527 1.59534 0 15.1193 0 31.7403C0 48.3703 13.527 61.9073 30.152 61.9073C46.784 61.9073 60.31 48.3703 60.31 31.7403C60.31 15.1193 46.784 1.59534 30.152 1.59534ZM30.152 56.9393C16.264 56.9393 4.965 45.6353 4.965 31.7403C4.965 17.8673 16.264 6.56334 30.152 6.56334C44.044 6.56334 55.339 17.8673 55.339 31.7403C55.339 45.6353 44.044 56.9393 30.152 56.9393Z" fill="white"/>
<path fill-rule="evenodd" clip-rule="evenodd" d="M140.244 57.4322C125.298 57.4322 113.836 46.2632 113.836 31.7622C113.836 17.2622 125.452 5.86719 140.244 5.86719C155.038 5.86719 166.574 17.1832 166.574 31.5932C166.574 46.1162 154.965 57.4322 140.244 57.4322ZM140.244 48.6292C149.266 48.6292 156.661 41.0142 156.661 31.5932C156.661 22.2862 149.341 14.6712 140.244 14.6712C131.136 14.6712 123.742 22.2862 123.742 31.5932C123.742 41.0142 131.136 48.6292 140.244 48.6292Z" fill="white"/>
<path fill-rule="evenodd" clip-rule="evenodd" d="M78.534 52.6545C76.549 50.4465 75.802 48.5395 75.5 44.6365H85.123C85.778 47.1715 87.163 48.3935 89.109 48.3935C91.895 48.3935 93.473 46.4085 93.473 42.7645V6.97949H103.088V42.1695C103.088 51.6345 97.8 57.4885 89.109 57.4885C85.254 57.4885 81.182 55.6725 78.534 52.6545Z" fill="white"/>
<path fill-rule="evenodd" clip-rule="evenodd" d="M170.242 56.4678L180.535 56.4558L183.883 48.1688H202.967L206.313 56.4558L216.62 56.4678L193.427 3.36877L170.242 56.4678ZM193.475 24.6078L199.859 40.5218H187.002L193.475 24.6078Z" fill="white"/>
</svg>
